<mxfile host="app.diagrams.net" modified="2023-05-01T15:21:11.919Z" agent="Mozilla/5.0 (Windows NT 10.0; Win64; x64) AppleWebKit/537.36 (KHTML, like Gecko) Chrome/112.0.0.0 Safari/537.36" etag="iulqewfR2sKPQGAUL2Ln" version="21.1.8" type="device">
  <diagram id="C5RBs43oDa-KdzZeNtuy" name="Page-1">
    <mxGraphModel dx="1760" dy="968" grid="1" gridSize="10" guides="1" tooltips="1" connect="1" arrows="1" fold="1" page="1" pageScale="1" pageWidth="2336" pageHeight="1654" math="0" shadow="0">
      <root>
        <mxCell id="WIyWlLk6GJQsqaUBKTNV-0" />
        <mxCell id="WIyWlLk6GJQsqaUBKTNV-1" parent="WIyWlLk6GJQsqaUBKTNV-0" />
        <mxCell id="yBkI0LW_eye0TSYGtvUE-5" value="&lt;p style=&quot;margin:0px;margin-top:4px;text-align:center;&quot;&gt;&lt;b&gt;Mine&lt;/b&gt;&lt;/p&gt;&lt;hr size=&quot;1&quot;&gt;&lt;p style=&quot;margin:0px;margin-left:4px;&quot;&gt;-&amp;nbsp;mine:&amp;nbsp;array&amp;lt;array&amp;lt;array&amp;lt;int, 10&amp;gt;, 5&amp;gt;, 5&amp;gt;&lt;br&gt;&lt;/p&gt;&lt;p style=&quot;margin:0px;margin-left:4px;&quot;&gt;- block_counter: int&lt;/p&gt;&lt;p style=&quot;margin:0px;margin-left:4px;&quot;&gt;- tunnel_counter: int&lt;/p&gt;&lt;hr size=&quot;1&quot;&gt;&lt;p style=&quot;margin:0px;margin-left:4px;&quot;&gt;+ Mine();&lt;/p&gt;&lt;p style=&quot;margin:0px;margin-left:4px;&quot;&gt;+ ~Mine();&lt;/p&gt;&lt;p style=&quot;margin:0px;margin-left:4px;&quot;&gt;&lt;span style=&quot;background-color: initial;&quot;&gt;+ init_mine(): void&amp;nbsp;&lt;/span&gt;&lt;/p&gt;&lt;p style=&quot;margin:0px;margin-left:4px;&quot;&gt;&lt;span style=&quot;background-color: initial;&quot;&gt;+ print_mine(): void&lt;/span&gt;&lt;/p&gt;&lt;p style=&quot;margin:0px;margin-left:4px;&quot;&gt;+ rearrange_mine(): void&lt;/p&gt;&lt;p style=&quot;margin:0px;margin-left:4px;&quot;&gt;+ sum_mine_values(): const int&lt;/p&gt;&lt;p style=&quot;margin:0px;margin-left:4px;&quot;&gt;&lt;span style=&quot;background-color: initial;&quot;&gt;+ get_block_counter(): const int&lt;/span&gt;&lt;br&gt;&lt;/p&gt;&lt;p style=&quot;margin:0px;margin-left:4px;&quot;&gt;+ increment_block_counter(): void&lt;/p&gt;&lt;p style=&quot;margin:0px;margin-left:4px;&quot;&gt;+ reset_block_counter(): void&lt;/p&gt;&lt;p style=&quot;margin:0px;margin-left:4px;&quot;&gt;&lt;span style=&quot;background-color: initial;&quot;&gt;+ get_tunnel_counter(): const int&lt;/span&gt;&lt;br&gt;&lt;/p&gt;&lt;p style=&quot;margin:0px;margin-left:4px;&quot;&gt;+ increment_tunnel_counter(): void&lt;/p&gt;&lt;p style=&quot;margin:0px;margin-left:4px;&quot;&gt;+ reset_tunnel_counter(): void&lt;/p&gt;&lt;p style=&quot;margin:0px;margin-left:4px;&quot;&gt;+ get_field(const int x, const int y, const int z): const int&lt;/p&gt;&lt;p style=&quot;margin:0px;margin-left:4px;&quot;&gt;+ remove_field(const int x, const int y, const int z): void&lt;/p&gt;&lt;p style=&quot;margin:0px;margin-left:4px;&quot;&gt;&lt;span style=&quot;background-color: initial;&quot;&gt;+ get_tunnel(const int x, const int y): array&amp;lt;int, 10&amp;gt; &amp;amp;&lt;/span&gt;&lt;/p&gt;&lt;p style=&quot;margin:0px;margin-left:4px;&quot;&gt;+ sort_tunnel(array&amp;lt;int, 10&amp;gt;&amp;amp; tunnel): void&lt;/p&gt;&lt;p style=&quot;margin:0px;margin-left:4px;&quot;&gt;+ rsort_tunnel(array&amp;lt;int, 10&amp;gt;&amp;amp; tunnel): void&lt;/p&gt;&lt;p style=&quot;margin:0px;margin-left:4px;&quot;&gt;+ shuffle_tunnel(array&amp;lt;int, 10&amp;gt;&amp;amp; tunnel): void&lt;/p&gt;&lt;p style=&quot;margin:0px;margin-left:4px;&quot;&gt;+ special_effect(const int x, const int y): int&lt;/p&gt;&lt;p style=&quot;margin:0px;margin-left:4px;&quot;&gt;+ special_effect_index(const int x, const int y): int&amp;nbsp;&lt;/p&gt;&lt;p style=&quot;margin:0px;margin-left:4px;&quot;&gt;&lt;span style=&quot;background-color: initial;&quot;&gt;+ find_lowest_tunnel(): const std::pair&amp;lt;int, int&amp;gt;&lt;/span&gt;&lt;/p&gt;" style="verticalAlign=top;align=left;overflow=fill;fontSize=12;fontFamily=Helvetica;html=1;" parent="WIyWlLk6GJQsqaUBKTNV-1" vertex="1">
          <mxGeometry x="200" y="210" width="408" height="410" as="geometry" />
        </mxCell>
        <mxCell id="yBkI0LW_eye0TSYGtvUE-7" value="&lt;p style=&quot;margin:0px;margin-top:4px;text-align:center;&quot;&gt;&lt;b&gt;sortingBot&lt;/b&gt;&lt;/p&gt;&lt;hr size=&quot;1&quot;&gt;&lt;p style=&quot;margin:0px;margin-left:4px;&quot;&gt;+&amp;nbsp;sortingBot(int x, int y, std::string name, int health_points, std::mutex&amp;amp; m, int threadNum);&lt;/p&gt;&lt;p style=&quot;margin:0px;margin-left:4px;&quot;&gt;+ virtual ~sortingBot();&lt;/p&gt;&lt;p style=&quot;margin:0px;margin-left:4px;&quot;&gt;&lt;span style=&quot;background-color: initial;&quot;&gt;+ extract(Mine&amp;amp; m, const int x, const int y): override void&lt;/span&gt;&lt;br&gt;&lt;/p&gt;" style="verticalAlign=top;align=left;overflow=fill;fontSize=12;fontFamily=Helvetica;html=1;" parent="WIyWlLk6GJQsqaUBKTNV-1" vertex="1">
          <mxGeometry x="258" y="760" width="490" height="90" as="geometry" />
        </mxCell>
        <mxCell id="yBkI0LW_eye0TSYGtvUE-8" value="&lt;p style=&quot;margin:0px;margin-top:4px;text-align:center;&quot;&gt;&lt;b&gt;Game&lt;/b&gt;&lt;/p&gt;&lt;hr size=&quot;1&quot;&gt;&lt;p style=&quot;margin:0px;margin-left:4px;&quot;&gt;- round_counter: int&lt;br&gt;&lt;/p&gt;&lt;p style=&quot;margin:0px;margin-left:4px;&quot;&gt;- level_counter: int&lt;/p&gt;&lt;hr size=&quot;1&quot;&gt;&lt;p style=&quot;margin:0px;margin-left:4px;&quot;&gt;+&amp;nbsp;Game();&lt;/p&gt;&lt;p style=&quot;margin:0px;margin-left:4px;&quot;&gt;+ ~Game();&lt;/p&gt;&lt;p style=&quot;margin:0px;margin-left:4px;&quot;&gt;+ runGame(Robot&amp;amp; robot, Mine&amp;amp; mine, std::vector&amp;lt;std::reference_wrapper&amp;lt;Robot&amp;gt;&amp;gt; other_robots): void&lt;/p&gt;&lt;p style=&quot;margin:0px;margin-left:4px;&quot;&gt;+ get_round_counter(): const int&lt;/p&gt;&lt;p style=&quot;margin:0px;margin-left:4px;&quot;&gt;+ increment_round_counter(): void&lt;/p&gt;&lt;p style=&quot;margin:0px;margin-left:4px;&quot;&gt;&lt;span style=&quot;background-color: initial;&quot;&gt;+ get_level_counter(): const int&lt;/span&gt;&lt;/p&gt;&lt;p style=&quot;margin:0px;margin-left:4px;&quot;&gt;+ increment_level_counter(): void&lt;/p&gt;" style="verticalAlign=top;align=left;overflow=fill;fontSize=12;fontFamily=Helvetica;html=1;" parent="WIyWlLk6GJQsqaUBKTNV-1" vertex="1">
          <mxGeometry x="1550" y="280" width="570" height="200" as="geometry" />
        </mxCell>
        <mxCell id="yBkI0LW_eye0TSYGtvUE-10" style="edgeStyle=orthogonalEdgeStyle;rounded=0;orthogonalLoop=1;jettySize=auto;html=1;exitX=0;exitY=0.25;exitDx=0;exitDy=0;" parent="WIyWlLk6GJQsqaUBKTNV-1" edge="1">
          <mxGeometry relative="1" as="geometry">
            <mxPoint x="358" y="480" as="targetPoint" />
            <mxPoint x="358" y="480" as="sourcePoint" />
          </mxGeometry>
        </mxCell>
        <mxCell id="yBkI0LW_eye0TSYGtvUE-22" value="&lt;p style=&quot;margin:0px;margin-top:4px;text-align:center;&quot;&gt;&lt;b&gt;tripleBot&lt;/b&gt;&lt;/p&gt;&lt;hr size=&quot;1&quot;&gt;&lt;p style=&quot;margin:0px;margin-left:4px;&quot;&gt;+&amp;nbsp;tripleBot(int x, int y, std::string name, int health_points, std::mutex&amp;amp; m, int threadNum);&lt;/p&gt;&lt;p style=&quot;margin:0px;margin-left:4px;&quot;&gt;+ virtual ~tripleBot();&lt;/p&gt;&lt;p style=&quot;margin:0px;margin-left:4px;&quot;&gt;&lt;span style=&quot;background-color: initial;&quot;&gt;+ extract(Mine&amp;amp; m, const int x, const int y): override void&lt;/span&gt;&lt;br&gt;&lt;/p&gt;" style="verticalAlign=top;align=left;overflow=fill;fontSize=12;fontFamily=Helvetica;html=1;" parent="WIyWlLk6GJQsqaUBKTNV-1" vertex="1">
          <mxGeometry x="1338" y="760" width="480" height="90" as="geometry" />
        </mxCell>
        <mxCell id="yBkI0LW_eye0TSYGtvUE-23" value="&lt;p style=&quot;margin:0px;margin-top:4px;text-align:center;&quot;&gt;&lt;b&gt;skilledBot&lt;/b&gt;&lt;/p&gt;&lt;hr size=&quot;1&quot;&gt;&lt;p style=&quot;margin:0px;margin-left:4px;&quot;&gt;+&amp;nbsp;skilledBot(int x, int y, std::string name, int health_points, std::mutex&amp;amp; m, int threadNum);&lt;/p&gt;&lt;p style=&quot;margin:0px;margin-left:4px;&quot;&gt;+ virtual ~skilledBot();&lt;/p&gt;&lt;p style=&quot;margin:0px;margin-left:4px;&quot;&gt;&lt;span style=&quot;background-color: initial;&quot;&gt;+ extract(Mine&amp;amp; m, const int x, const int y): override void&lt;/span&gt;&lt;br&gt;&lt;/p&gt;" style="verticalAlign=top;align=left;overflow=fill;fontSize=12;fontFamily=Helvetica;html=1;" parent="WIyWlLk6GJQsqaUBKTNV-1" vertex="1">
          <mxGeometry x="788" y="760" width="490" height="90" as="geometry" />
        </mxCell>
        <mxCell id="yBkI0LW_eye0TSYGtvUE-24" value="" style="endArrow=block;dashed=1;endFill=0;endSize=12;html=1;rounded=0;entryX=0.454;entryY=0.997;entryDx=0;entryDy=0;entryPerimeter=0;exitX=0.568;exitY=-0.026;exitDx=0;exitDy=0;exitPerimeter=0;" parent="WIyWlLk6GJQsqaUBKTNV-1" edge="1" target="yBkI0LW_eye0TSYGtvUE-6" source="yBkI0LW_eye0TSYGtvUE-23">
          <mxGeometry width="160" relative="1" as="geometry">
            <mxPoint x="1036" y="710" as="sourcePoint" />
            <mxPoint x="1038" y="570" as="targetPoint" />
          </mxGeometry>
        </mxCell>
        <mxCell id="yBkI0LW_eye0TSYGtvUE-6" value="&lt;p style=&quot;margin:0px;margin-top:4px;text-align:center;&quot;&gt;&lt;b&gt;Robot&lt;/b&gt;&lt;/p&gt;&lt;hr size=&quot;1&quot;&gt;&lt;p style=&quot;margin:0px;margin-left:4px;&quot;&gt;~ x_coord: int&lt;br&gt;&lt;/p&gt;&lt;p style=&quot;margin:0px;margin-left:4px;&quot;&gt;~ y_coord: int&lt;br&gt;&lt;/p&gt;&lt;p style=&quot;margin:0px;margin-left:4px;&quot;&gt;~ z_coord: int&lt;br&gt;&lt;/p&gt;&lt;p style=&quot;margin:0px;margin-left:4px;&quot;&gt;~ name: std::string&lt;br&gt;&lt;/p&gt;&lt;p style=&quot;margin:0px;margin-left:4px;&quot;&gt;~ points: int&lt;br&gt;&lt;/p&gt;&lt;p style=&quot;margin:0px;margin-left:4px;&quot;&gt;~ health_points: int&lt;/p&gt;&lt;p style=&quot;margin:0px;margin-left:4px;&quot;&gt;~ m:&amp;nbsp;std::mutex&amp;amp;&lt;/p&gt;&lt;p style=&quot;margin:0px;margin-left:4px;&quot;&gt;~&amp;nbsp;threadNumber: int&lt;/p&gt;&lt;hr size=&quot;1&quot;&gt;&lt;p style=&quot;margin:0px;margin-left:4px;&quot;&gt;+ Robot(int x, int y, std::string name, int health_points, std::mutex&amp;amp; m, int threadNum)&lt;br&gt;+ virtual ~Robot()&lt;br&gt;&lt;/p&gt;&lt;p style=&quot;margin:0px;margin-left:4px;&quot;&gt;+ random_move(): const char&lt;/p&gt;&lt;p style=&quot;margin:0px;margin-left:4px;&quot;&gt;+&amp;nbsp;moveRobot(const char direction): void&lt;/p&gt;&lt;p style=&quot;margin:0px;margin-left:4px;&quot;&gt;&lt;span style=&quot;background-color: initial;&quot;&gt;+ set_location(const int x, const int y): void&lt;/span&gt;&lt;/p&gt;&lt;p style=&quot;margin:0px;margin-left:4px;&quot;&gt;&lt;span style=&quot;background-color: initial;&quot;&gt;+ extract(Mine&amp;amp; mine, const int x, const int y): virtual void&lt;/span&gt;&lt;/p&gt;&lt;p style=&quot;margin:0px;margin-left:4px;&quot;&gt;+ get_xCoord(): const&lt;span style=&quot;background-color: initial;&quot;&gt;&amp;nbsp;int&amp;nbsp;&lt;/span&gt;&lt;/p&gt;&lt;p style=&quot;margin:0px;margin-left:4px;&quot;&gt;+ get_yCoord(): const int&lt;/p&gt;&lt;p style=&quot;margin:0px;margin-left:4px;&quot;&gt;+ get_name(): const std::string&lt;/p&gt;&lt;p style=&quot;margin:0px;margin-left:4px;&quot;&gt;+ get_points(): const int&lt;/p&gt;&lt;p style=&quot;margin:0px;margin-left:4px;&quot;&gt;&lt;span style=&quot;background-color: initial;&quot;&gt;+&amp;nbsp;&lt;/span&gt;get_health_points(): const int&lt;/p&gt;&lt;p style=&quot;margin:0px;margin-left:4px;&quot;&gt;&lt;span style=&quot;background-color: initial;&quot;&gt;+ deduct_health_point(): void&lt;/span&gt;&lt;/p&gt;&lt;p style=&quot;margin:0px;margin-left:4px;&quot;&gt;+ lock_mutex(): void&amp;nbsp;&lt;/p&gt;&lt;p style=&quot;margin:0px;margin-left:4px;&quot;&gt;&lt;span style=&quot;background-color: initial;&quot;&gt;+ unlock_mutex(): void&lt;/span&gt;&lt;/p&gt;&lt;p style=&quot;margin:0px;margin-left:4px;&quot;&gt;&lt;br&gt;&lt;/p&gt;&lt;p style=&quot;margin:0px;margin-left:4px;&quot;&gt;&lt;br&gt;&lt;/p&gt;" style="verticalAlign=top;align=left;overflow=fill;fontSize=12;fontFamily=Helvetica;html=1;" parent="WIyWlLk6GJQsqaUBKTNV-1" vertex="1">
          <mxGeometry x="858" y="150" width="460" height="390" as="geometry" />
        </mxCell>
        <mxCell id="yBkI0LW_eye0TSYGtvUE-29" value="" style="endArrow=diamondThin;endFill=0;endSize=24;html=1;rounded=0;entryX=0.994;entryY=0.365;entryDx=0;entryDy=0;entryPerimeter=0;exitX=-0.007;exitY=0.545;exitDx=0;exitDy=0;exitPerimeter=0;" parent="WIyWlLk6GJQsqaUBKTNV-1" target="yBkI0LW_eye0TSYGtvUE-5" edge="1" source="yBkI0LW_eye0TSYGtvUE-6">
          <mxGeometry width="160" relative="1" as="geometry">
            <mxPoint x="828" y="360" as="sourcePoint" />
            <mxPoint x="728" y="380" as="targetPoint" />
          </mxGeometry>
        </mxCell>
        <mxCell id="yBkI0LW_eye0TSYGtvUE-30" value="" style="endArrow=diamondThin;endFill=1;endSize=24;html=1;rounded=0;entryX=-0.002;entryY=0.326;entryDx=0;entryDy=0;exitX=1;exitY=0.5;exitDx=0;exitDy=0;entryPerimeter=0;" parent="WIyWlLk6GJQsqaUBKTNV-1" source="yBkI0LW_eye0TSYGtvUE-6" target="yBkI0LW_eye0TSYGtvUE-8" edge="1">
          <mxGeometry width="160" relative="1" as="geometry">
            <mxPoint x="1308" y="320" as="sourcePoint" />
            <mxPoint x="1418" y="380" as="targetPoint" />
          </mxGeometry>
        </mxCell>
        <mxCell id="yBkI0LW_eye0TSYGtvUE-31" value="1" style="text;html=1;align=center;verticalAlign=middle;resizable=0;points=[];autosize=1;strokeColor=none;fillColor=none;" parent="WIyWlLk6GJQsqaUBKTNV-1" vertex="1">
          <mxGeometry x="620" y="330" width="30" height="30" as="geometry" />
        </mxCell>
        <mxCell id="yBkI0LW_eye0TSYGtvUE-32" value="1" style="text;html=1;align=center;verticalAlign=middle;resizable=0;points=[];autosize=1;strokeColor=none;fillColor=none;" parent="WIyWlLk6GJQsqaUBKTNV-1" vertex="1">
          <mxGeometry x="828" y="330" width="30" height="30" as="geometry" />
        </mxCell>
        <mxCell id="yBkI0LW_eye0TSYGtvUE-33" value="1" style="text;html=1;align=center;verticalAlign=middle;resizable=0;points=[];autosize=1;strokeColor=none;fillColor=none;" parent="WIyWlLk6GJQsqaUBKTNV-1" vertex="1">
          <mxGeometry x="1318" y="350" width="30" height="30" as="geometry" />
        </mxCell>
        <mxCell id="yBkI0LW_eye0TSYGtvUE-35" value="1" style="text;html=1;align=center;verticalAlign=middle;resizable=0;points=[];autosize=1;strokeColor=none;fillColor=none;" parent="WIyWlLk6GJQsqaUBKTNV-1" vertex="1">
          <mxGeometry x="1510" y="350" width="30" height="30" as="geometry" />
        </mxCell>
        <mxCell id="faE43mNvJEk8F7SykR8m-3" value="&lt;p style=&quot;margin:0px;margin-top:4px;text-align:center;&quot;&gt;&lt;b&gt;comboBot&lt;/b&gt;&lt;/p&gt;&lt;hr size=&quot;1&quot;&gt;&lt;p style=&quot;margin:0px;margin-left:4px;&quot;&gt;+ comboBot(int x, int y, std::string name, int health_points, std::mutex&amp;amp; m, int threadNum);&lt;/p&gt;&lt;p style=&quot;margin:0px;margin-left:4px;&quot;&gt;+ virtual ~comboBot();&lt;/p&gt;&lt;p style=&quot;margin:0px;margin-left:4px;&quot;&gt;&lt;span style=&quot;background-color: initial;&quot;&gt;+ extract(Mine&amp;amp; m, const int x, const int y): override void&lt;/span&gt;&lt;br&gt;&lt;/p&gt;" style="verticalAlign=top;align=left;overflow=fill;fontSize=12;fontFamily=Helvetica;html=1;" vertex="1" parent="WIyWlLk6GJQsqaUBKTNV-1">
          <mxGeometry x="508" y="890" width="490" height="90" as="geometry" />
        </mxCell>
        <mxCell id="faE43mNvJEk8F7SykR8m-4" value="&lt;p style=&quot;margin:0px;margin-top:4px;text-align:center;&quot;&gt;&lt;b&gt;shuffleBot&lt;/b&gt;&lt;/p&gt;&lt;hr size=&quot;1&quot;&gt;&lt;p style=&quot;margin:0px;margin-left:4px;&quot;&gt;+ shuffleBot(int x, int y, std::string name, int health_points, std::mutex&amp;amp; m, int threadNum);&lt;/p&gt;&lt;p style=&quot;margin:0px;margin-left:4px;&quot;&gt;+ virtual ~shuffleBot();&lt;/p&gt;&lt;p style=&quot;margin:0px;margin-left:4px;&quot;&gt;&lt;span style=&quot;background-color: initial;&quot;&gt;+ extract(Mine&amp;amp; m, const int x, const int y): override void&lt;/span&gt;&lt;br&gt;&lt;/p&gt;" style="verticalAlign=top;align=left;overflow=fill;fontSize=12;fontFamily=Helvetica;html=1;" vertex="1" parent="WIyWlLk6GJQsqaUBKTNV-1">
          <mxGeometry x="1198" y="890" width="485" height="90" as="geometry" />
        </mxCell>
        <mxCell id="faE43mNvJEk8F7SykR8m-6" value="" style="endArrow=block;dashed=1;endFill=0;endSize=12;html=1;rounded=0;entryX=0.75;entryY=1;entryDx=0;entryDy=0;" edge="1" parent="WIyWlLk6GJQsqaUBKTNV-1" source="yBkI0LW_eye0TSYGtvUE-22" target="yBkI0LW_eye0TSYGtvUE-6">
          <mxGeometry width="160" relative="1" as="geometry">
            <mxPoint x="1076" y="768" as="sourcePoint" />
            <mxPoint x="1077" y="549" as="targetPoint" />
          </mxGeometry>
        </mxCell>
        <mxCell id="faE43mNvJEk8F7SykR8m-7" value="" style="endArrow=block;dashed=1;endFill=0;endSize=12;html=1;rounded=0;entryX=0.653;entryY=1.004;entryDx=0;entryDy=0;entryPerimeter=0;exitX=0.25;exitY=0;exitDx=0;exitDy=0;" edge="1" parent="WIyWlLk6GJQsqaUBKTNV-1" source="faE43mNvJEk8F7SykR8m-4" target="yBkI0LW_eye0TSYGtvUE-6">
          <mxGeometry width="160" relative="1" as="geometry">
            <mxPoint x="1086" y="778" as="sourcePoint" />
            <mxPoint x="1087" y="559" as="targetPoint" />
          </mxGeometry>
        </mxCell>
        <mxCell id="faE43mNvJEk8F7SykR8m-9" value="" style="endArrow=block;dashed=1;endFill=0;endSize=12;html=1;rounded=0;entryX=0.25;entryY=1;entryDx=0;entryDy=0;exitX=0.573;exitY=0.011;exitDx=0;exitDy=0;exitPerimeter=0;" edge="1" parent="WIyWlLk6GJQsqaUBKTNV-1" source="faE43mNvJEk8F7SykR8m-3" target="yBkI0LW_eye0TSYGtvUE-6">
          <mxGeometry width="160" relative="1" as="geometry">
            <mxPoint x="1096" y="788" as="sourcePoint" />
            <mxPoint x="1097" y="569" as="targetPoint" />
          </mxGeometry>
        </mxCell>
        <mxCell id="faE43mNvJEk8F7SykR8m-10" value="" style="endArrow=block;dashed=1;endFill=0;endSize=12;html=1;rounded=0;entryX=0.085;entryY=1.008;entryDx=0;entryDy=0;entryPerimeter=0;" edge="1" parent="WIyWlLk6GJQsqaUBKTNV-1" source="yBkI0LW_eye0TSYGtvUE-7" target="yBkI0LW_eye0TSYGtvUE-6">
          <mxGeometry width="160" relative="1" as="geometry">
            <mxPoint x="1106" y="798" as="sourcePoint" />
            <mxPoint x="1107" y="579" as="targetPoint" />
          </mxGeometry>
        </mxCell>
      </root>
    </mxGraphModel>
  </diagram>
</mxfile>
